<svg xmlns="http://www.w3.org/2000/svg" viewBox="0 0 320 40" fill="none" role="img" aria-label="Ornamental divider">
  <g stroke="#D4AF37" stroke-width="1.2" fill="none" stroke-linecap="round">
    <path d="M0 20h96M224 20h96" opacity=".55"/>
    <path d="M104 20c8-8 16-8 24 0-8 8-16 8-24 0Z"/>
    <path d="M216 20c-8-8-16-8-24 0 8 8 16 8 24 0Z"/>
    <path d="M160 6c10 6 14 10 14 14s-4 8-14 14c-10-6-14-10-14-14s4-8 14-14Z"/>
    <path d="M146 20h-6M180 20h-6"/>
  </g>
  <g fill="#D4AF37">
    <circle cx="160" cy="20" r="2.6"/>
    <circle cx="132" cy="20" r="1.8"/>
    <circle cx="188" cy="20" r="1.8"/>
    <circle cx="100" cy="20" r="1.4" opacity=".7"/>
    <circle cx="220" cy="20" r="1.4" opacity=".7"/>
  </g>
</svg>
