<svg xmlns="http://www.w3.org/2000/svg" viewBox="0 0 200 200" fill="none" role="img" aria-label="Kolam motif">
  <g stroke="#D4AF37" stroke-width="1.6" fill="none" stroke-linecap="round">
    <!-- four interlaced loops of the sikku kolam -->
    <path d="M100 30c22 0 40 18 40 40s-18 40-40 40-40-18-40-40 18-40 40-40Z" opacity=".9"/>
    <path d="M100 60c22 0 40 18 40 40s-18 40-40 40-40-18-40-40 18-40 40-40Z" opacity=".9"/>
    <path d="M70 70c0-22 18-40 40-40s40 18 40 40-18 40-40 40-40-18-40-40Z" opacity=".55"/>
    <path d="M50 100c0-22 18-40 40-40s40 18 40 40-18 40-40 40-40-18-40-40Z" opacity=".55"/>
    <!-- outer petal ring -->
    <path d="M100 12c14 14 14 24 0 34-14-10-14-20 0-34ZM100 188c14-14 14-24 0-34-14 10-14 20 0 34ZM12 100c14-14 24-14 34 0-10 14-20 14-34 0ZM188 100c-14-14-24-14-34 0 10 14 20 14 34 0Z"/>
    <path d="M38 38c18 4 24 12 20 28-16 4-24-10-20-28ZM162 38c-18 4-24 12-20 28 16 4 24-10 20-28ZM38 162c18-4 24-12 20-28-16-4-24 10-20 28ZM162 162c-18-4-24-12-20-28 16-4 24 10 20 28Z" opacity=".7"/>
  </g>
  <!-- kolam dots -->
  <g fill="#D4AF37" opacity=".85">
    <circle cx="100" cy="100" r="3.5"/>
    <circle cx="100" cy="64" r="2.4"/><circle cx="100" cy="136" r="2.4"/>
    <circle cx="64" cy="100" r="2.4"/><circle cx="136" cy="100" r="2.4"/>
    <circle cx="75" cy="75" r="1.8"/><circle cx="125" cy="75" r="1.8"/>
    <circle cx="75" cy="125" r="1.8"/><circle cx="125" cy="125" r="1.8"/>
  </g>
</svg>
