<svg xmlns="http://www.w3.org/2000/svg" viewBox="0 0 160 120" fill="none" role="img" aria-label="Lotus flower">
  <defs>
    <linearGradient id="lo-p" x1="80" y1="16" x2="80" y2="104" gradientUnits="userSpaceOnUse">
      <stop offset="0" stop-color="#FBDCE7"/>
      <stop offset="1" stop-color="#E28BAF"/>
    </linearGradient>
    <linearGradient id="lo-s" x1="80" y1="30" x2="80" y2="104" gradientUnits="userSpaceOnUse">
      <stop offset="0" stop-color="#F5C3D6"/>
      <stop offset="1" stop-color="#D4638E"/>
    </linearGradient>
  </defs>
  <!-- outer petals -->
  <g fill="url(#lo-s)" opacity=".9">
    <path d="M80 102C58 98 24 88 8 70c20-10 44-8 60 4 8 6 12 17 12 28Z"/>
    <path d="M80 102c22-4 56-14 72-32-20-10-44-8-60 4-8 6-12 17-12 28Z"/>
    <path d="M80 102C64 94 40 74 32 50c18 0 36 12 42 28 3 8 4 16 6 24Z"/>
    <path d="M80 102c16-8 40-28 48-52-18 0-36 12-42 28-3 8-4 16-6 24Z"/>
  </g>
  <!-- inner petals -->
  <g fill="url(#lo-p)">
    <path d="M80 102C68 90 56 66 58 40c14 8 24 26 24 42 0 8-1 14-2 20Z"/>
    <path d="M80 102c12-12 24-36 22-62-14 8-24 26-24 42 0 8 1 14 2 20Z"/>
    <path d="M80 14c12 14 18 34 18 50 0 16-8 30-18 38-10-8-18-22-18-38 0-16 6-36 18-50Z"/>
  </g>
  <!-- centre -->
  <ellipse cx="80" cy="96" rx="9" ry="6" fill="#D4AF37" opacity=".85"/>
</svg>
