<svg xmlns="http://www.w3.org/2000/svg" viewBox="0 0 64 64">
  <rect width="64" height="64" rx="12" fill="#FAF6EE"/>
  <rect x="2.5" y="2.5" width="59" height="59" rx="10" fill="none" stroke="#D4AF37" stroke-width="2"/>
  <!-- lamp flame -->
  <path d="M32 10c5 8 8 12 8 17 0 6-4 10-8 10s-8-4-8-10c0-5 3-9 8-17Z" fill="#D4AF37"/>
  <!-- lamp body -->
  <path d="M14 40h36l-5 6H19l-5-6Z" fill="#A8743B"/>
  <path d="M29 46h6v6h-6z" fill="#A8743B"/>
  <path d="M32 52c-9 0-16 4-18 8h36c-2-4-9-8-18-8Z" fill="#A8743B"/>
</svg>
